<?xml version="1.0" encoding="UTF-8"?>
<svg xmlns="http://www.w3.org/2000/svg" xmlns:xlink="http://www.w3.org/1999/xlink" width="512pt" height="512pt" viewBox="0 0 512 512" version="1.1">
  <g>
    <path d="M 340.570312 256.082031 L 499.003906 97.648438 C 516.511719 80.140625 516.511719 51.761719 499.003906 34.285156 L 477.882812 13.160156 C 460.371094 -4.347656 431.992188 -4.347656 414.511719 13.160156 L 256.082031 171.59375 L 97.648438 13.128906 C 80.140625 -4.375 51.761719 -4.375 34.285156 13.128906 L 13.128906 34.25 C -4.375 51.761719 -4.375 80.140625 13.128906 97.621094 L 171.59375 256.082031 L 13.160156 414.511719 C -4.347656 432.023438 -4.347656 460.40625 13.160156 477.882812 L 34.285156 499.003906 C 51.789062 516.511719 80.167969 516.511719 97.648438 499.003906 L 256.082031 340.570312 L 414.511719 499.003906 C 432.023438 516.511719 460.40625 516.511719 477.882812 499.003906 L 499.003906 477.882812 C 516.511719 460.371094 516.511719 431.992188 499.003906 414.511719 Z M 340.570312 256.082031 "/>
  </g>
</svg>
